<svg width="1300" height="938" viewBox="0 0 1300 938" fill="none" xmlns="http://www.w3.org/2000/svg">
<g clip-path="url(#clip0_4_1307)">
<rect width="1300" height="938" fill="#F0F2F5"/>
<path d="M0 300.562C0 276.992 0 265.206 7.32233 257.884C14.6447 250.562 26.4116 250.562 49.9456 250.562C110.318 250.562 214.285 250.562 298.428 250.562C425.157 250.562 650 250.562 650 250.562H1250C1273.57 250.562 1285.36 250.562 1292.68 257.884C1300 265.206 1300 276.992 1300 300.562V378.823V457.084C1300 480.655 1300 492.44 1292.68 499.762C1285.36 507.084 1273.6 507.084 1250.09 507.084C1082.91 507.084 548.03 507.084 457.862 507.084C0 507.084 0 938 0 938V300.562Z" fill="#CD0C79" fill-opacity="0.2"/>
<path d="M0 217.301C0 193.731 0 181.946 7.32233 174.624C14.6447 167.301 26.4291 167.301 49.9979 167.301C108.32 167.301 206.953 167.301 286.95 167.301C408.805 167.301 625 167.301 625 167.301H1200C1223.57 167.301 1235.36 167.301 1242.68 174.624C1250 181.946 1250 193.731 1250 217.301V295.454V373.606C1250 397.176 1250 408.961 1242.68 416.283C1235.36 423.606 1223.64 423.606 1200.2 423.606C1037.43 423.606 526.628 423.606 440.252 423.606C0 423.606 0 854.155 0 854.155V217.301Z" fill="#CD0C79" fill-opacity="0.4"/>
<path d="M0 135.416C0 111.845 0 100.06 7.32233 92.7379C14.6447 85.4155 26.4145 85.4155 49.9541 85.4155C106.173 85.4156 199.562 85.4156 275.472 85.4155C392.453 85.4155 600 85.4155 600 85.4155H1150C1173.57 85.4155 1185.36 85.4155 1192.68 92.7379C1200 100.06 1200 111.845 1200 135.416V213.699V291.983C1200 315.553 1200 327.339 1192.68 334.661C1185.36 341.983 1173.66 341.983 1150.27 341.983C991.959 341.983 505.227 341.983 422.642 341.983C0 341.983 0 772.975 0 772.975V135.416Z" fill="#FF00BB" fill-opacity="0.7"/>
<path d="M-9.22648 43.9482C-9.58847 18.7015 -9.76947 6.07811 -1.96228 -1.44379C5.8449 -8.96569 18.5002 -8.31268 43.8106 -7.00665C100.906 -4.06051 192.557 3.26334e-05 263.994 1.33514e-05C376.101 -1.69079e-05 575 1.33514e-05 575 1.33514e-05H1100C1123.57 1.33514e-05 1135.36 1.33514e-05 1142.68 7.32234C1150 14.6447 1150 26.4298 1150 50V128.261V206.523C1150 230.093 1150 241.878 1142.68 249.2C1135.36 256.523 1123.67 256.523 1100.31 256.523C946.504 256.523 483.825 256.523 405.031 256.523C0 256.523 0 687.438 0 687.438L-9.22648 43.9482Z" fill="#FF00BB"/>
<path d="M247.681 227.937C247.355 226.53 246.763 225.2 245.937 224.024C245.111 222.848 244.07 221.851 242.873 221.091C243.847 218.937 244.091 216.497 243.566 214.159C243.254 212.79 242.683 211.495 241.885 210.348C241.087 209.202 240.079 208.228 238.919 207.482C236.444 205.853 233.46 205.293 230.62 205.925L208.68 210.953L207.918 201.133C207.818 199.886 207.627 198.646 207.348 197.425C205.196 188.034 196.578 178.515 188.694 180.322C186.409 180.847 184.386 182.186 182.977 184.105L182.325 184.994L187.047 200.338C187.45 201.641 187.445 203.035 187.034 204.321L180.287 230.261L179.929 230.765C179.542 229.76 178.821 228.926 177.898 228.415C176.974 227.904 175.908 227.749 174.895 227.98L151.517 233.337C150.398 233.595 149.431 234.303 148.827 235.305C148.224 236.307 148.034 237.522 148.298 238.683L158.779 284.414C159.046 285.575 159.746 286.586 160.726 287.225C161.705 287.865 162.885 288.081 164.004 287.825L187.384 282.467C188.502 282.208 189.467 281.5 190.069 280.498C190.671 279.496 190.861 278.283 190.596 277.123L190.068 274.818L190.107 274.838C195.286 277.65 200.861 276.418 201.099 276.364L236.23 268.298L236.342 268.273C237.815 267.847 239.173 267.09 240.321 266.056C241.47 265.021 242.379 263.734 242.986 262.287C243.592 260.84 243.881 259.267 243.831 257.68C243.781 256.094 243.394 254.533 242.697 253.108C244.913 251.44 246.388 248.923 246.799 246.106C247.21 243.29 246.524 240.402 244.891 238.072C246.165 236.787 247.091 235.179 247.579 233.404C248.068 231.628 248.103 229.745 247.681 227.937V227.937ZM186.495 278.062C186.5 278.094 186.494 278.125 186.478 278.152C186.462 278.179 186.437 278.198 186.408 278.207L163.028 283.565C162.998 283.57 162.967 283.563 162.942 283.546C162.916 283.529 162.897 283.502 162.889 283.472L152.409 237.742C152.403 237.711 152.409 237.679 152.424 237.652C152.44 237.626 152.465 237.606 152.494 237.597L175.873 232.239C175.903 232.235 175.934 232.241 175.96 232.258C175.986 232.275 176.006 232.301 176.015 232.332L186.495 278.062ZM240.689 235.878L238.108 237.417L240.42 239.43C241.248 240.148 241.886 241.073 242.272 242.114C242.657 243.154 242.778 244.276 242.621 245.37C242.465 246.465 242.038 247.494 241.38 248.359C240.722 249.224 239.856 249.896 238.867 250.308L236.191 251.43L238.09 253.732C238.768 254.555 239.239 255.536 239.46 256.586C239.682 257.637 239.647 258.724 239.358 259.749C239.07 260.774 238.537 261.704 237.809 262.455C237.081 263.206 236.18 263.755 235.187 264.051L200.136 272.101C200.032 272.124 195.773 273.009 192.036 270.98C191.329 270.58 190.572 270.285 189.788 270.103L188.947 269.924L181.246 236.322L184.158 232.243L191.063 205.71C191.734 203.573 191.736 201.261 191.068 199.1L187.043 186.019C187.782 185.319 188.686 184.832 189.669 184.606C194.995 183.386 201.582 191.165 203.238 198.389C203.467 199.391 203.623 200.409 203.704 201.434L204.863 216.331L231.61 210.201C233.354 209.818 235.184 210.165 236.703 211.167C237.388 211.604 237.984 212.177 238.456 212.851C238.929 213.525 239.268 214.288 239.454 215.094C239.67 216.062 239.667 217.065 239.446 218.025C239.224 218.984 238.79 219.874 238.176 220.624L236.139 223.15L239.219 224.123C240.391 224.491 241.438 225.203 242.232 226.172C243.026 227.14 243.532 228.324 243.688 229.575C243.844 230.827 243.643 232.093 243.109 233.217C242.575 234.341 241.733 235.273 240.685 235.9L240.689 235.878Z" fill="white"/>
<circle cx="374.092" cy="342.816" r="26.2815" transform="rotate(-45 374.092 342.816)" stroke="white" stroke-width="7"/>
<rect x="386.901" y="367.243" width="13.898" height="34.8174" transform="rotate(-45 386.901 367.243)" fill="white"/>
<path d="M137.747 393.894C108.226 399.174 88.0803 426.32 93.0495 454.104C95.7145 469.005 105.281 481.654 119.026 489.107L121.767 504.434C121.963 505.525 122.71 506.438 123.741 506.845C124.752 507.248 125.92 507.109 126.828 506.435L141.033 495.603C145.938 495.999 150.903 495.756 155.808 494.879C185.329 489.599 205.512 462.661 200.543 434.879C195.573 407.095 167.267 388.614 137.747 393.894ZM178.284 424.641L158.723 460.639C157.789 462.353 155.598 462.792 154.082 461.736L141.125 452.71L120.032 468.435C118.832 469.33 117.161 469.274 116.026 468.288C114.889 467.304 114.592 465.663 115.308 464.342L134.869 428.343C135.304 427.546 136.061 426.968 136.944 426.76C137.843 426.535 138.762 426.724 139.51 427.247L152.467 436.272L173.559 420.548C174.764 419.653 176.435 419.713 177.566 420.694C178.703 421.678 179 423.32 178.284 424.641Z" fill="white"/>
<g clip-path="url(#clip1_4_1307)">
<path d="M505.714 179.425L443.503 158.877C441.952 158.365 440.286 159.192 439.779 160.725L435.197 174.598L423.035 170.581C421.485 170.069 419.819 170.896 419.312 172.429L404.037 218.674C402.185 224.284 405.294 230.373 410.968 232.247L471.308 252.178C478.014 254.392 485.251 250.801 487.441 244.171L507.604 183.127C508.11 181.595 507.264 179.937 505.714 179.425ZM419.006 223.618C418.163 226.168 415.38 227.549 412.801 226.698C410.221 225.846 408.808 223.078 409.65 220.528L424.009 177.058L433.364 180.148L419.006 223.618L419.006 223.618ZM481.828 242.317C480.649 245.886 476.751 247.821 473.141 246.628L421.965 229.725C423.144 228.574 424.069 227.136 424.619 225.472L444.476 165.353L501.074 184.048L481.828 242.317Z" fill="white"/>
<path d="M489.86 187.217L451.504 174.548C449.953 174.036 448.287 174.863 447.781 176.395L441.671 194.893C441.164 196.426 442.011 198.083 443.561 198.595L481.917 211.264C483.467 211.776 485.133 210.949 485.64 209.416L491.75 190.918C492.256 189.386 491.41 187.729 489.86 187.217ZM480.943 204.788L448.2 193.973L452.477 181.024L485.22 191.839L480.943 204.788Z" fill="white"/>
<path d="M458.28 213.715L440.973 207.999C439.423 207.487 437.757 208.314 437.25 209.846C436.744 211.379 437.59 213.036 439.14 213.548L456.447 219.264C457.997 219.776 459.664 218.949 460.17 217.417C460.677 215.884 459.831 214.227 458.28 213.715Z" fill="white"/>
<path d="M473.019 231.919L437.002 220.022C435.452 219.51 433.785 220.338 433.279 221.87C432.773 223.403 433.619 225.06 435.169 225.572L471.186 237.468C472.736 237.98 474.403 237.153 474.909 235.621C475.415 234.088 474.569 232.431 473.019 231.919Z" fill="white"/>
</g>
</g>
<defs>
<clipPath id="clip0_4_1307">
<rect width="1300" height="938" fill="white"/>
</clipPath>
<clipPath id="clip1_4_1307">
<rect width="87.1922" height="86.2034" fill="white" transform="translate(426.721 150) rotate(18.2785)"/>
</clipPath>
</defs>
</svg>
