<svg width="12" height="11" viewBox="0 0 12 11" fill="none" xmlns="http://www.w3.org/2000/svg">
<path d="M10.5 3.97595H7.5V1.72595C7.5 0.898702 6.82725 0.225952 6 0.225952H4.875C4.77554 0.225952 4.68016 0.265461 4.60984 0.335787C4.53951 0.406113 4.5 0.501496 4.5 0.600952V2.3762L3.0495 4.91495C3.01687 4.9715 2.99979 5.03567 3 5.10095V10.351C3 10.4504 3.03951 10.5458 3.10984 10.6161C3.18016 10.6864 3.27554 10.726 3.375 10.726H9.39375C9.68385 10.7258 9.96769 10.6416 10.2109 10.4835C10.4541 10.3253 10.6462 10.1001 10.764 9.83495L11.967 7.1282C11.9887 7.08039 12 7.02847 12 6.97595V5.47595C12 4.6487 11.3273 3.97595 10.5 3.97595ZM0 5.10095V10.351C0 10.4504 0.0395088 10.5458 0.109835 10.6161C0.180161 10.6864 0.275544 10.726 0.375 10.726H2.25V4.72595H0.375C0.275544 4.72595 0.180161 4.76546 0.109835 4.83579C0.0395088 4.90611 0 5.0015 0 5.10095H0Z" fill="white"/>
</svg>
